<svg xmlns="http://www.w3.org/2000/svg" xmlns:xlink="http://www.w3.org/1999/xlink" width="500" zoomAndPan="magnify" viewBox="0 0 375 374.999991" height="500" preserveAspectRatio="xMidYMid meet" version="1.2"><defs><clipPath id="7657d07202"><rect x="0" width="293" y="0" height="375"/></clipPath><clipPath id="61f2d8e0dc"><path d="M 126 100.851562 L 261 100.851562 L 261 286 L 126 286 Z M 126 100.851562 "/></clipPath><clipPath id="67c04764dd"><rect x="0" width="293" y="0" height="375"/></clipPath></defs><g id="03e7819278"><rect x="0" width="375" y="0" height="374.999991" style="fill:#ffffff;fill-opacity:1;stroke:none;"/><rect x="0" width="375" y="0" height="374.999991" style="fill:#000000;fill-opacity:1;stroke:none;"/><g transform="matrix(1,0,0,1,0,0)"><g clip-path="url(#7657d07202)"><g style="fill:#c1ff72;fill-opacity:1;"><g transform="translate(-11.91033, 310.293212)"><path style="stroke:none" d="M 169.375 9.46875 C 142.5625 9.46875 118.035156 3.082031 95.796875 -9.6875 C 73.566406 -22.46875 55.90625 -40.6875 42.8125 -64.34375 C 29.726562 -88 23.1875 -115.597656 23.1875 -147.140625 C 23.1875 -178.992188 29.492188 -207.0625 42.109375 -231.34375 C 54.722656 -255.632812 72.703125 -274.484375 96.046875 -287.890625 C 119.390625 -301.296875 146.671875 -308 177.890625 -308 C 205.015625 -308 229.144531 -302.554688 250.28125 -291.671875 C 271.414062 -280.796875 281.984375 -264.003906 281.984375 -241.296875 C 282.296875 -227.097656 278.035156 -215.03125 269.203125 -205.09375 C 260.367188 -195.164062 248.539062 -190.203125 233.71875 -190.203125 C 228.039062 -190.203125 223.226562 -191.222656 219.28125 -193.265625 C 215.34375 -195.316406 212.425781 -197.757812 210.53125 -200.59375 C 208.644531 -203.4375 207.859375 -205.648438 208.171875 -207.234375 C 208.171875 -207.859375 210.378906 -209.585938 214.796875 -212.421875 C 219.210938 -215.265625 223.15625 -219.207031 226.625 -224.25 C 230.09375 -229.300781 231.828125 -235.457031 231.828125 -242.71875 C 231.828125 -256.90625 227.015625 -268.175781 217.390625 -276.53125 C 207.773438 -284.894531 194.453125 -289.078125 177.421875 -289.078125 C 158.179688 -289.078125 141.066406 -283.632812 126.078125 -272.75 C 111.097656 -261.875 99.425781 -245.945312 91.0625 -224.96875 C 82.707031 -204 78.53125 -179.003906 78.53125 -149.984375 C 78.53125 -124.742188 83.023438 -101.796875 92.015625 -81.140625 C 101.003906 -60.484375 113.703125 -44.082031 130.109375 -31.9375 C 146.515625 -19.789062 165.28125 -13.71875 186.40625 -13.71875 C 203.4375 -13.71875 218.023438 -17.265625 230.171875 -24.359375 C 242.316406 -31.460938 253.28125 -42.898438 263.0625 -58.671875 C 264.632812 -61.503906 266.84375 -62.921875 269.6875 -62.921875 C 272.207031 -62.921875 275.046875 -61.976562 278.203125 -60.09375 C 283.242188 -56.613281 285.765625 -53.140625 285.765625 -49.671875 C 285.765625 -47.785156 285.132812 -46.210938 283.875 -44.953125 C 271.882812 -29.804688 260.609375 -18.367188 250.046875 -10.640625 C 239.484375 -2.910156 228.050781 2.367188 215.75 5.203125 C 203.445312 8.046875 187.988281 9.46875 169.375 9.46875 Z M 169.375 9.46875 "/></g></g></g></g><path style=" stroke:none;fill-rule:nonzero;fill:#92c730;fill-opacity:1;" d="M 328.726562 314.320312 C 302.222656 357.511719 269.746094 363.261719 238.941406 350.296875 C 239.121094 344.0625 239.601562 337.339844 240.519531 330.261719 C 246.539062 283.859375 305.699219 206.855469 306.40625 205.9375 C 305.6875 206.53125 245.777344 256.425781 225.53125 318.765625 C 222.960938 326.671875 221.242188 333.746094 220.210938 340.082031 C 188.121094 318.535156 172.9375 284.890625 202.429688 236.839844 C 233.164062 186.757812 335.652344 161.394531 335.652344 161.394531 C 335.652344 161.394531 359.460938 264.238281 328.726562 314.320312 Z M 328.726562 314.320312 "/><g clip-rule="nonzero" clip-path="url(#61f2d8e0dc)"><path style=" stroke:none;fill-rule:nonzero;fill:#78a831;fill-opacity:1;" d="M 260.511719 178.542969 C 237.925781 189.230469 214.789062 203.441406 200.308594 221.136719 C 178.6875 187.332031 160.324219 151.117188 159.890625 150.0625 C 160.074219 151.175781 169.5 191.457031 192.367188 232.730469 C 180.546875 253.023438 176.789062 270.691406 178.929688 285.917969 C 163.789062 280.671875 149.582031 268.132812 137.53125 245.714844 C 111.222656 196.765625 139.269531 100.949219 139.269531 100.949219 C 139.269531 100.949219 233.5625 130.105469 260.511719 178.542969 Z M 260.511719 178.542969 "/></g><g transform="matrix(1,0,0,1,0,0)"><g clip-path="url(#67c04764dd)"><g style="fill:#78a831;fill-opacity:1;"><g transform="translate(-24.667941, 316.760208)"><path style="stroke:none" d="M 176.578125 9.859375 C 148.628906 9.859375 123.0625 3.203125 99.875 -10.109375 C 76.695312 -23.429688 58.285156 -42.421875 44.640625 -67.078125 C 30.992188 -91.742188 24.171875 -120.519531 24.171875 -153.40625 C 24.171875 -186.613281 30.742188 -215.875 43.890625 -241.1875 C 57.046875 -266.507812 75.789062 -286.160156 100.125 -300.140625 C 124.457031 -314.117188 152.90625 -321.109375 185.46875 -321.109375 C 213.738281 -321.109375 238.890625 -315.4375 260.921875 -304.09375 C 282.960938 -292.75 293.984375 -275.238281 293.984375 -251.5625 C 294.304688 -236.757812 289.863281 -224.175781 280.65625 -213.8125 C 271.445312 -203.457031 259.117188 -198.28125 243.671875 -198.28125 C 237.742188 -198.28125 232.722656 -199.347656 228.609375 -201.484375 C 224.503906 -203.628906 221.460938 -206.179688 219.484375 -209.140625 C 217.515625 -212.097656 216.695312 -214.398438 217.03125 -216.046875 C 217.03125 -216.703125 219.332031 -218.507812 223.9375 -221.46875 C 228.539062 -224.425781 232.648438 -228.535156 236.265625 -233.796875 C 239.878906 -239.054688 241.6875 -245.46875 241.6875 -253.03125 C 241.6875 -267.832031 236.671875 -279.585938 226.640625 -288.296875 C 216.617188 -297.015625 202.726562 -301.375 184.96875 -301.375 C 164.90625 -301.375 147.0625 -295.703125 131.4375 -284.359375 C 115.820312 -273.015625 103.65625 -256.40625 94.9375 -234.53125 C 86.226562 -212.664062 81.875 -186.609375 81.875 -156.359375 C 81.875 -130.054688 86.5625 -106.132812 95.9375 -84.59375 C 105.3125 -63.050781 118.546875 -45.945312 135.640625 -33.28125 C 152.742188 -20.625 172.3125 -14.296875 194.34375 -14.296875 C 212.09375 -14.296875 227.296875 -17.992188 239.953125 -25.390625 C 252.617188 -32.796875 264.050781 -44.71875 274.25 -61.15625 C 275.894531 -64.125 278.195312 -65.609375 281.15625 -65.609375 C 283.78125 -65.609375 286.738281 -64.617188 290.03125 -62.640625 C 295.289062 -59.023438 297.921875 -55.410156 297.921875 -51.796875 C 297.921875 -49.816406 297.265625 -48.171875 295.953125 -46.859375 C 283.453125 -31.078125 271.691406 -19.15625 260.671875 -11.09375 C 249.660156 -3.039062 237.742188 2.460938 224.921875 5.421875 C 212.097656 8.378906 195.984375 9.859375 176.578125 9.859375 Z M 176.578125 9.859375 "/></g></g></g></g></g></svg>